<svg xmlns="http://www.w3.org/2000/svg" xmlns:xlink="http://www.w3.org/1999/xlink" viewBox="0,0,256,256" width="32px" height="32px" fill-rule="nonzero"><g fill="#32375c" fill-rule="nonzero" stroke="none" stroke-width="1" stroke-linecap="butt" stroke-linejoin="miter" stroke-miterlimit="10" stroke-dasharray="" stroke-dashoffset="0" font-family="none" font-weight="none" font-size="none" text-anchor="none" style="mix-blend-mode: normal"><path d="M0,256v-256h256v256z" id="bgRectangle"></path></g><g fill="#ffffff" fill-rule="nonzero" stroke="none" stroke-width="1" stroke-linecap="butt" stroke-linejoin="miter" stroke-miterlimit="10" stroke-dasharray="" stroke-dashoffset="0" font-family="none" font-weight="none" font-size="none" text-anchor="none" style="mix-blend-mode: normal"><g transform="scale(4,4)"><path d="M13,6c-3.85179,0 -7,3.14821 -7,7v38c0,3.85179 3.14821,7 7,7h38c3.85179,0 7,-3.14821 7,-7v-38c0,-3.85179 -3.14821,-7 -7,-7zM13,8h38c2.76821,0 5,2.23179 5,5v38c0,2.76821 -2.23179,5 -5,5h-38c-2.76821,0 -5,-2.23179 -5,-5v-38c0,-2.76821 2.23179,-5 5,-5zM29.37695,11.12305c-0.55,0.049 -0.95525,0.53398 -0.90625,1.08398l0.17578,1.99219c0.046,0.52 0.48309,0.91211 0.99609,0.91211c0.029,0 0.05884,-0.00091 0.08984,-0.00391c0.55,-0.049 0.95525,-0.53398 0.90625,-1.08398l-0.17578,-1.99219c-0.049,-0.55 -0.52294,-0.9622 -1.08594,-0.9082zM34.62305,11.12305c-0.557,-0.055 -1.03694,0.3582 -1.08594,0.9082l-0.17578,1.99219c-0.049,0.55 0.35625,1.03498 0.90625,1.08398c0.03,0.003 0.06084,0.00391 0.08984,0.00391c0.513,0 0.95109,-0.39111 0.99609,-0.91211l0.17578,-1.99219c0.049,-0.55 -0.35625,-1.03498 -0.90625,-1.08398zM24.60156,12.03516c-0.1288,-0.01675 -0.26348,-0.00916 -0.39648,0.02734c-0.531,0.148 -0.84231,0.70042 -0.69531,1.23242l0.53711,1.92578c0.124,0.442 0.52489,0.73047 0.96289,0.73047c0.089,0 0.17758,-0.01116 0.26758,-0.03516c0.531,-0.148 0.84231,-0.70042 0.69531,-1.23242l-0.53516,-1.92578c-0.11175,-0.399 -0.44955,-0.67241 -0.83594,-0.72266zM39.39844,12.03516c-0.38649,0.05049 -0.72494,0.32441 -0.83594,0.72266l-0.53711,1.92578c-0.148,0.532 0.16431,1.08442 0.69531,1.23242c0.09,0.024 0.18053,0.03516 0.26953,0.03516c0.438,0 0.83989,-0.28947 0.96289,-0.73047l0.53516,-1.92578c0.148,-0.532 -0.16236,-1.08442 -0.69336,-1.23242c-0.13275,-0.0365 -0.26766,-0.04417 -0.39648,-0.02734zM19.66406,13.83789c-0.12966,0.00789 -0.25931,0.04226 -0.38281,0.10351c-0.495,0.246 -0.69717,0.84584 -0.45117,1.33984l0.89258,1.79102c0.174,0.352 0.52949,0.55664 0.89648,0.55664c0.15,0 0.30231,-0.03347 0.44531,-0.10547c0.495,-0.246 0.69522,-0.8478 0.44922,-1.3418l-0.89258,-1.79102c-0.1845,-0.3705 -0.56806,-0.57641 -0.95703,-0.55273zM44.33789,13.83984c-0.38845,-0.02367 -0.77374,0.18223 -0.95898,0.55273l-0.89258,1.79102c-0.246,0.494 -0.04383,1.09384 0.45117,1.33984c0.142,0.071 0.29436,0.10547 0.44336,0.10547c0.367,0 0.72149,-0.20369 0.89648,-0.55469l0.89258,-1.79102c0.246,-0.494 0.04578,-1.0958 -0.44922,-1.3418c-0.123,-0.06125 -0.25333,-0.09367 -0.38281,-0.10156zM15.54102,16.55859c-0.25388,-0.03138 -0.51883,0.03458 -0.73633,0.20508c-0.436,0.34 -0.51383,0.96734 -0.17383,1.40234l1.23047,1.57617c0.197,0.253 0.49106,0.38477 0.78906,0.38477c0.215,0 0.43323,-0.06989 0.61523,-0.21289c0.436,-0.34 0.51187,-0.96734 0.17188,-1.40234l-1.23047,-1.57617c-0.17,-0.218 -0.41214,-0.34558 -0.66601,-0.37695zM48.45898,16.55859c-0.25388,0.03138 -0.49652,0.15895 -0.66602,0.37695l-1.23047,1.57617c-0.34,0.434 -0.26412,1.06234 0.17188,1.40234c0.182,0.143 0.40023,0.21289 0.61523,0.21289c0.297,0 0.59106,-0.13177 0.78906,-0.38477l1.23047,-1.57617c0.34,-0.434 0.26217,-1.06234 -0.17383,-1.40234c-0.218,-0.1705 -0.48245,-0.23645 -0.73633,-0.20508zM32,18c-10.39139,0 -19,7.06744 -19,16c0,5.40589 3.2436,10.09629 8.02539,12.9707c-0.39902,2.36814 -2.62695,4.23047 -2.62695,4.23047c-0.34342,0.25878 -0.48299,0.70811 -0.34661,1.11591c0.13638,0.40781 0.51817,0.68279 0.94817,0.68291c3.65272,0 6.45569,-1.76039 8.43945,-3.5293c1.46418,0.30785 2.976,0.5293 4.56055,0.5293c10.39139,0 19,-7.06744 19,-16c0,-8.93256 -8.60861,-16 -19,-16zM32,20c9.49061,0 17,6.36456 17,14c0,7.63544 -7.50939,14 -17,14c-1.58856,0 -3.12246,-0.19384 -4.58984,-0.5332c-0.32606,-0.07579 -0.66842,0.01658 -0.91211,0.24609c-1.24361,1.17268 -2.88767,2.297 -4.86133,2.875c0.73817,-1.03926 1.43279,-2.35309 1.51172,-3.99414c0.01841,-0.38262 -0.18335,-0.74215 -0.51953,-0.92578c-4.64285,-2.53633 -7.62891,-6.82788 -7.62891,-11.66797c0,-7.63544 7.50939,-14 17,-14z"></path></g></g></svg>